<?xml version="1.0" encoding="UTF-8" standalone="no"?>
<svg xmlns:rdf="http://www.w3.org/1999/02/22-rdf-syntax-ns#" xmlns="http://www.w3.org/2000/svg" height="200" width="200" version="1.1" xmlns:cc="http://creativecommons.org/ns#" xmlns:dc="http://purl.org/dc/elements/1.1/" viewBox="0 0 199.99997 199.9995">
 <g transform="matrix(.99008 0 0 .99009 -.58047 -841.42)" stroke="#808080" stroke-width="2" fill="#fff">
  <g transform="scale(1.0003 .99972)" stroke="#808080" stroke-width="2" fill="#fff">
   <path d="m56.229 923.67q0-15.016 5.6449-28.225 5.7578-13.209 15.58-23.031 9.9351-9.9351 23.144-15.58 13.322-5.7578 28.45-5.7578 9.9351 0 19.193 2.5967 9.2577 2.5967 17.273 7.3384 8.1287 4.7418 14.677 11.403 6.661 6.5481 11.403 14.677 4.7418 8.0158 7.3384 17.273 2.5967 9.2577 2.5967 19.306t-2.5967 19.306q-2.5967 9.2577-7.3384 17.386-4.7417 8.0158-11.403 14.677-6.5481 6.661-14.677 11.403-8.0158 4.7417-17.273 7.3384-9.1448 2.5967-19.193 2.5967-9.2577 0-17.838-2.1451-8.5803-2.258-16.257-6.3223l-60.852 57.917q-2.3709 2.5967-5.9836 3.9514-3.6128 1.3548-7.3384 1.3548-3.8386 0-7.4513-1.5805-3.4999-1.4677-6.3223-4.4031-2.7096-2.8225-4.0644-6.3223-1.3548-3.4999-1.3548-7.1126 0-3.8386 1.4677-7.6771 1.4677-3.9515 4.2901-6.3224l59.388-56.44q-5.0804-8.2416-7.79-17.725-2.7096-9.4835-2.7096-19.87zm22.015 0q0 10.5 3.9515 19.757 4.0644 9.2577 10.951 16.145 6.8868 6.8868 16.145 10.951 9.2577 3.9514 19.757 3.9514 10.5 0 19.757-3.9514 9.2577-4.0644 16.145-10.951 6.8868-6.8868 10.838-16.145 4.0644-9.2577 4.0644-19.757 0-10.5-4.0644-19.757-3.9514-9.3706-10.838-16.257-6.8868-6.8868-16.145-10.838-9.2577-4.0644-19.757-4.0644-10.5 0-19.757 4.0644-9.2577 3.9514-16.145 10.838-6.8868 6.8868-10.951 16.257-3.9515 9.2577-3.9515 19.757z" stroke="#808080" stroke-width="2" fill="#fff"/>
  </g>
 </g>
</svg>
